HIERARCHY
ROOT hip
{
	OFFSET	0.00  0.00  0.00 
	CHANNELS 6 Xposition Yposition Zposition Xrotation Zrotation Yrotation
	JOINT abdomen
	{
		OFFSET	-0.091370 2.926705 0.251545
		CHANNELS 3 Xrotation Zrotation Yrotation
		JOINT chest
		{
			OFFSET	0.096375 5.782475 -0.385498
			CHANNELS 3 Xrotation Zrotation Yrotation
			JOINT neck
			{
				OFFSET	-0.385499 9.926591 0.481873
				CHANNELS 3 Xrotation Zrotation Yrotation
				JOINT head
				{
					OFFSET	0.289124 4.336854 0.578248
					CHANNELS 3 Xrotation Zrotation Yrotation
					JOINT leftEye
					{
						OFFSET	1.108308 2.409369 3.662236
						CHANNELS 3 Zrotation Yrotation Xrotation
						End Site
						{
							OFFSET 0.000000 0.000000 0.770997
						}
					}
					JOINT rightEye
					{
						OFFSET	-1.108308 2.409369 3.662236
						CHANNELS 3 Zrotation Yrotation Xrotation
						End Site
						{
							OFFSET 0.000000 0.000000 0.770997
						}
					}
				}
			}
			JOINT rCollar
			{
				OFFSET	-1.252870 7.902721 -1.156496
				CHANNELS 3 Zrotation Yrotation Xrotation
				JOINT rShldr
				{
					OFFSET	-4.047735 -0.674619 1.252870
					CHANNELS 3 Zrotation Yrotation Xrotation
					JOINT rForeArm
					{
						OFFSET	-11.950454 0.385494 -0.674622
						CHANNELS 3 Yrotation Zrotation Xrotation
						JOINT rHand
						{
							OFFSET	-10.392750 -0.380100 3.772546
							CHANNELS 3 Zrotation Yrotation Xrotation
							JOINT rThumb1
							{
								OFFSET	-0.690333 -0.198146 1.335309
								CHANNELS 3 Yrotation Zrotation Xrotation
								JOINT rThumb2
								{
									OFFSET	-0.735722 -0.503747 1.263722
									CHANNELS 3 Yrotation Zrotation Xrotation
									JOINT rThumb3
									{
										OFFSET	-0.747194 -0.027757 0.576108
										CHANNELS 3 Yrotation Zrotation Xrotation
										End Site
										{
											OFFSET -0.943795 0.000000 0.640593
										}
									}
								}
							}
							JOINT rIndex1
							{
								OFFSET	-2.906950 0.187353 2.202681
								CHANNELS 3 Zrotation Yrotation Xrotation
								JOINT rIndex2
								{
									OFFSET	-1.256436 0.082880 0.837139
									CHANNELS 3 Zrotation Yrotation Xrotation
									JOINT rIndex3
									{
										OFFSET	-0.882115 -0.077480 0.335326
										CHANNELS 3 Zrotation Yrotation Xrotation
										End Site
										{
											OFFSET -0.911225 -0.024770 0.453520
										}
									}
								}
							}
							JOINT rMid1
							{
								OFFSET	-3.485196 0.380100 1.335309
								CHANNELS 3 Zrotation Yrotation Xrotation
								JOINT rMid2
								{
									OFFSET	-1.398011 -0.114204 0.506719
									CHANNELS 3 Zrotation Yrotation Xrotation
									JOINT rMid3
									{
										OFFSET	-1.162182 -0.169522 0.376622
										CHANNELS 3 Zrotation Yrotation Xrotation
										End Site
										{
											OFFSET -1.359556 0.003854 0.476891
										}
									}
								}
							}
							JOINT rRing1
							{
								OFFSET	-3.677945 -0.005394 0.467937
								CHANNELS 3 Zrotation Yrotation Xrotation
								JOINT rRing2
								{
									OFFSET	-1.146666 0.049821 0.202165
									CHANNELS 3 Zrotation Yrotation Xrotation
									JOINT rRing3
									{
										OFFSET	-1.315031 -0.140703 0.141073
										CHANNELS 3 Zrotation Yrotation Xrotation
										End Site
										{
											OFFSET -1.025233 0.023420 -0.019555
										}
									}
								}
							}
							JOINT rPinky1
							{
								OFFSET	-3.581572 -0.198146 -0.399434
								CHANNELS 3 Zrotation Yrotation Xrotation
								JOINT rPinky2
								{
									OFFSET	-0.993622 -0.205183 0.249071
									CHANNELS 3 Zrotation Yrotation Xrotation
									JOINT rPinky3
									{
										OFFSET	-0.542878 -0.159688 -0.037548
										CHANNELS 3 Zrotation Yrotation Xrotation
										End Site
										{
											OFFSET -0.834893 0.061775 0.015796
										}
									}
								}
							}
						}
					}
				}
			}
			JOINT lCollar
			{
				OFFSET	1.060121 7.902721 -1.156496
				CHANNELS 3 Zrotation Yrotation Xrotation
				JOINT lShldr
				{
					OFFSET	4.047735 -0.674619 1.252870
					CHANNELS 3 Zrotation Yrotation Xrotation
					JOINT lForeArm
					{
						OFFSET	11.950454 0.385494 -0.674622
						CHANNELS 3 Yrotation Zrotation Xrotation
						JOINT lHand
						{
							OFFSET	10.392750 -0.380100 3.772546
							CHANNELS 3 Zrotation Yrotation Xrotation
							JOINT lThumb1
							{
								OFFSET	0.690333 -0.198146 1.335309
								CHANNELS 3 Yrotation Zrotation Xrotation
								JOINT lThumb2
								{
									OFFSET	0.735722 -0.503747 1.263722
									CHANNELS 3 Yrotation Zrotation Xrotation
									JOINT lThumb3
									{
										OFFSET	0.747194 -0.027757 0.576108
										CHANNELS 3 Yrotation Zrotation Xrotation
										End Site
										{
											OFFSET 0.943795 0.000000 0.640593
										}
									}
								}
							}
							JOINT lIndex1
							{
								OFFSET	2.906950 0.187353 2.202681
								CHANNELS 3 Zrotation Yrotation Xrotation
								JOINT lIndex2
								{
									OFFSET	1.256436 0.082880 0.837139
									CHANNELS 3 Zrotation Yrotation Xrotation
									JOINT lIndex3
									{
										OFFSET	0.882115 -0.077480 0.335326
										CHANNELS 3 Zrotation Yrotation Xrotation
										End Site
										{
											OFFSET 0.911225 -0.024770 0.453520
										}
									}
								}
							}
							JOINT lMid1
							{
								OFFSET	3.485196 0.380100 1.335309
								CHANNELS 3 Zrotation Yrotation Xrotation
								JOINT lMid2
								{
									OFFSET	1.398011 -0.114204 0.506719
									CHANNELS 3 Zrotation Yrotation Xrotation
									JOINT lMid3
									{
										OFFSET	1.162182 -0.169522 0.376622
										CHANNELS 3 Zrotation Yrotation Xrotation
										End Site
										{
											OFFSET 1.359556 0.003854 0.476891
										}
									}
								}
							}
							JOINT lRing1
							{
								OFFSET	3.677945 -0.005394 0.467937
								CHANNELS 3 Zrotation Yrotation Xrotation
								JOINT lRing2
								{
									OFFSET	1.146666 0.049821 0.202165
									CHANNELS 3 Zrotation Yrotation Xrotation
									JOINT lRing3
									{
										OFFSET	1.315031 -0.140703 0.141073
										CHANNELS 3 Zrotation Yrotation Xrotation
										End Site
										{
											OFFSET 1.025233 0.023420 -0.019555
										}
									}
								}
							}
							JOINT lPinky1
							{
								OFFSET	3.581572 -0.198146 -0.399434
								CHANNELS 3 Zrotation Yrotation Xrotation
								JOINT lPinky2
								{
									OFFSET	0.993622 -0.205183 0.249071
									CHANNELS 3 Zrotation Yrotation Xrotation
									JOINT lPinky3
									{
										OFFSET	0.542878 -0.159688 -0.037548
										CHANNELS 3 Zrotation Yrotation Xrotation
										End Site
										{
											OFFSET 0.834893 0.061775 0.015796
										}
									}
								}
							}
						}
					}
				}
			}
		}
	}
	JOINT genital
	{
		OFFSET	-0.091370 -5.554262 3.239159
		CHANNELS 3 Xrotation Zrotation Yrotation
		End Site
		{
			OFFSET 0.002708 -4.639669 -0.613097
		}
	}
	JOINT rThigh
	{
		OFFSET	-3.560857 -2.181151 -0.326702
		CHANNELS 3 Xrotation Zrotation Yrotation
		JOINT rShin
		{
			OFFSET	-0.385499 -18.214804 2.505740
			CHANNELS 3 Xrotation Zrotation Yrotation
			JOINT rFoot
			{
				OFFSET	-2.105699 -18.589760 -2.227269
				CHANNELS 3 Xrotation Zrotation Yrotation
				JOINT rToe
				{
					OFFSET	-1.309085 -2.764789 4.095279
					CHANNELS 3 Xrotation Yrotation Zrotation
					JOINT rBigToe1
					{
						OFFSET	1.198293 -0.242935 1.999244
						CHANNELS 3 Xrotation Yrotation Zrotation
						JOINT rBigToe2
						{
							OFFSET	-0.297528 -0.013649 0.825796
							CHANNELS 3 Xrotation Yrotation Zrotation
							End Site
							{
								OFFSET -0.722810 -0.483358 1.231282
							}
						}
					}
					JOINT rIndexToe1
					{
						OFFSET	0.138075 -0.146543 1.983515
						CHANNELS 3 Xrotation Yrotation Zrotation
						JOINT rIndexToe2
						{
							OFFSET	-0.350591 -0.320002 1.096724
							CHANNELS 3 Xrotation Yrotation Zrotation
							End Site
							{
								OFFSET -0.289847 -0.693301 0.530581
							}
						}
					}
					JOINT rMidToe1
					{
						OFFSET	-0.632950 -0.522491 1.312353
						CHANNELS 3 Xrotation Yrotation Zrotation
						JOINT rMidToe2
						{
							OFFSET	-0.290097 -0.260226 0.751674
							CHANNELS 3 Xrotation Yrotation Zrotation
							End Site
							{
								OFFSET -0.285867 -0.462487 1.069826
							}
						}
					}
					JOINT rRingToe1
					{
						OFFSET	-1.307573 -0.715240 1.408727
						CHANNELS 3 Xrotation Yrotation Zrotation
						JOINT rRingToe2
						{
							OFFSET	-0.266100 0.346634 0.264192
							CHANNELS 3 Xrotation Yrotation Zrotation
							End Site
							{
								OFFSET -0.091113 -0.913374 0.990953
							}
						}
					}
					JOINT rPinkyToe1
					{
						OFFSET	-1.693071 -0.426117 -0.036892
						CHANNELS 3 Xrotation Yrotation Zrotation
						JOINT rPinkyToe2
						{
							OFFSET	-0.096374 -0.096375 0.867372
							CHANNELS 3 Xrotation Yrotation Zrotation
							End Site
							{
								OFFSET 0.000000 0.000000 0.867372
							}
						}
					}
				}
			}
		}
	}
	JOINT lThigh
	{
		OFFSET	3.378116 -2.181151 -0.326702
		CHANNELS 3 Xrotation Zrotation Yrotation
		JOINT lShin
		{
			OFFSET	0.385499 -18.214804 2.505740
			CHANNELS 3 Xrotation Zrotation Yrotation
			JOINT lFoot
			{
				OFFSET	2.105699 -18.589760 -2.227269
				CHANNELS 3 Xrotation Zrotation Yrotation
				JOINT lToe
				{
					OFFSET	1.309085 -2.764789 4.095279
					CHANNELS 3 Xrotation Yrotation Zrotation
					JOINT lBigToe1
					{
						OFFSET	-1.198293 -0.242935 1.999244
						CHANNELS 3 Xrotation Yrotation Zrotation
						JOINT lBigToe2
						{
							OFFSET	0.297528 -0.013649 0.825796
							CHANNELS 3 Xrotation Yrotation Zrotation
							End Site
							{
								OFFSET 0.722810 -0.483358 1.231282
							}
						}
					}
					JOINT lIndexToe1
					{
						OFFSET	-0.138075 -0.146543 1.983515
						CHANNELS 3 Xrotation Yrotation Zrotation
						JOINT lIndexToe2
						{
							OFFSET	0.350591 -0.320002 1.096724
							CHANNELS 3 Xrotation Yrotation Zrotation
							End Site
							{
								OFFSET 0.289847 -0.693301 0.530581
							}
						}
					}
					JOINT lMidToe1
					{
						OFFSET	0.632950 -0.522491 1.312353
						CHANNELS 3 Xrotation Yrotation Zrotation
						JOINT lMidToe2
						{
							OFFSET	0.290097 -0.260226 0.751674
							CHANNELS 3 Xrotation Yrotation Zrotation
							End Site
							{
								OFFSET 0.285867 -0.462487 1.069826
							}
						}
					}
					JOINT lRingToe1
					{
						OFFSET	1.307573 -0.715240 1.408727
						CHANNELS 3 Xrotation Yrotation Zrotation
						JOINT lRingToe2
						{
							OFFSET	0.266100 0.346634 0.264192
							CHANNELS 3 Xrotation Yrotation Zrotation
							End Site
							{
								OFFSET 0.091113 -0.913374 0.990953
							}
						}
					}
					JOINT lPinkyToe1
					{
						OFFSET	1.693071 -0.426117 -0.036892
						CHANNELS 3 Xrotation Yrotation Zrotation
						JOINT lPinkyToe2
						{
							OFFSET	0.096374 -0.096375 0.867372
							CHANNELS 3 Xrotation Yrotation Zrotation
							End Site
							{
								OFFSET 0.000000 0.000000 0.867372
							}
						}
					}
				}
			}
		}
	}
}
MOTION
Frames:     4
Frame Time: 0.033333
0.091370 43.032486 -0.347920 0.000000 0.000000 0.000000 0.000000 0.000000 0.000000 0.000000 0.000000 0.000000 -0.010015 -0.009742 -0.009508 0.000000 0.000000 0.000000 0.000000 0.000000 0.000000 0.000000 0.000000 0.000000 0.000000 0.000000 0.000000 0.000000 0.000000 0.000000 -0.010067 -0.006438 -0.008850 0.000000 -0.009765 0.000000 -0.009767 0.000000 0.000000 -0.009766 0.000000 0.000000 -0.009766 -0.009766 0.000153 0.000000 -0.009766 0.000000 0.000000 -0.009767 0.000000 0.000000 -0.009766 0.000000 0.000000 -0.009766 0.000000 0.000000 -0.009765 0.000000 0.000000 -0.009765 0.000000 -0.009526 -0.009766 -0.009763 -0.009987 -0.010052 -0.009467 0.000851 -0.009766 -0.009730 -0.011410 -0.010241 -0.009120 0.000000 0.000000 0.000000 0.000000 0.000000 0.000000 0.000000 0.000000 0.000000 0.000000 0.000000 0.000000 -0.009454 -0.013092 -0.009502 0.000000 -0.009765 0.000000 -0.009767 0.000000 0.000000 -0.009766 0.000000 0.000000 -0.009767 -0.009766 -0.000155 0.000000 -0.009766 0.000000 0.000000 -0.009767 0.000000 0.000000 -0.009766 0.000000 0.000000 -0.009766 0.000000 0.000000 -0.009765 0.000000 0.000000 -0.009765 0.000000 -0.010004 -0.009767 -0.009761 -0.009542 -0.009472 -0.010049 -0.000849 -0.009766 -0.009729 -0.008119 -0.009268 -0.010106 0.000000 0.000000 0.000000 0.000000 0.000000 0.000000 0.000000 0.000000 0.000000 -0.021100 -0.156250 -0.017827 -0.161120 -0.025777 -0.129100 0.144000 0.019534 0.118605 -0.001864 -0.009586 -0.009765 -0.008935 -0.009581 -0.014137 0.000000 -0.009765 0.000000 -0.009639 -0.009376 -0.012911 -0.009529 -0.009766 -0.002130 -0.009388 -0.009763 -0.002691 -0.009278 -0.009768 -0.003049 -0.009382 -0.009765 -0.002707 0.000000 -0.009766 0.000000 -0.009767 -0.009706 -0.010837 0.000000 0.000000 0.000000 -1.680850 -4.923948 -0.261082 6.758687 2.695280 0.515757 -5.065157 2.018078 0.110290 0.001863 -0.009587 -0.009765 -0.008527 -0.009946 -0.005393 0.000000 -0.009765 0.000000 -0.008834 -0.010138 -0.006619 -0.009528 -0.009766 0.002131 -0.009388 -0.009765 0.002693 -0.009277 -0.009766 0.003051 -0.009382 -0.009767 0.002709 0.000000 -0.009766 0.000000 -0.009648 -0.009824 -0.008694 0.000000 0.000000 0.000000 
0.002650 43.040161 -0.438223 0.024028 0.018359 -0.002706 -0.005549 0.000011 0.000000 0.047962 -0.033138 0.005897 -0.010267 -0.011523 -0.019106 0.030975 -0.005315 -0.000600 0.000000 0.000000 0.000000 0.000000 0.000000 0.000000 -0.324231 -0.024903 0.016171 1.403612 -0.114131 -0.416683 -0.245811 -0.404953 1.268120 0.003830 0.078130 -0.040054 -0.019532 -0.009177 -0.003340 -0.009766 -0.006079 -0.007643 -0.019531 -0.009766 0.000308 -0.008474 -0.009766 -0.004854 -0.009035 -0.009767 -0.003706 -0.008814 -0.009766 -0.004204 0.000000 -0.009766 0.000000 -0.009378 -0.009765 -0.002723 0.000000 -0.019531 0.000000 -0.009202 -0.019526 -0.009757 -0.021282 -0.017984 -0.008973 -0.008877 -0.009886 -0.010580 -0.011410 -0.010241 -0.009120 0.001451 -0.000979 0.000000 0.005235 -0.003627 0.000000 0.314570 0.012016 0.013838 -1.311775 -0.273897 -0.055616 0.256110 0.032797 0.523171 -0.169507 0.019615 0.018596 -0.019534 0.000000 0.000000 -0.019531 0.000000 0.000000 -0.009866 -0.017236 0.006134 0.000000 -0.019531 0.000000 0.000000 -0.019533 0.000000 0.000000 -0.019531 0.000000 -0.009345 -0.019531 0.002836 0.000000 -0.019530 0.000000 -0.009553 -0.019531 0.002029 -0.019761 -0.010092 -0.009521 -0.009542 -0.009472 -0.010049 -0.000730 -0.019531 -0.009739 -0.016796 -0.019821 -0.012127 -0.001689 0.000895 0.000000 -0.005079 0.003797 0.000000 0.000000 0.000000 0.000000 -0.183434 -0.175791 -0.200155 0.086106 -0.070969 -0.110326 0.030497 -0.078142 0.184033 -0.001864 -0.009586 -0.009765 -0.017847 0.000336 -0.017740 -0.009596 -0.019532 -0.001810 -0.009639 -0.009376 -0.012911 -0.019060 -0.009766 -0.004261 -0.018776 -0.009763 -0.005384 -0.009278 -0.009768 -0.003049 -0.008806 -0.019307 -0.004705 -0.008976 -0.009766 -0.003846 -0.019416 -0.019352 -0.012977 0.000000 0.000000 0.000000 -1.768735 -4.953479 -0.140217 6.830314 2.631858 0.491729 -5.130145 2.144665 0.037975 0.003725 -0.019172 -0.009764 -0.017623 -0.029595 -0.002562 0.000000 -0.009765 0.000000 -0.009215 -0.019629 -0.008882 -0.010285 -0.018895 -0.001255 -0.019620 -0.019037 0.002435 -0.009277 -0.009766 0.003051 -0.009382 -0.009767 0.002709 -0.008975 -0.019532 0.003849 -0.019355 -0.009882 -0.007624 0.000733 0.000526 0.000000 
-0.102357 43.049557 -0.546288 0.046945 0.042090 -0.006859 -0.019934 0.000039 0.000000 0.108476 -0.072960 0.013042 -0.010267 -0.011523 -0.019106 0.066520 -0.020646 -0.002013 0.000000 0.000000 0.000000 0.000000 0.000000 0.000000 -0.722515 -0.056536 0.033052 3.041981 -0.235558 -0.950006 -0.462078 -0.868524 2.729146 0.016864 0.195333 -0.076803 -0.019533 -0.018353 -0.006680 0.009765 -0.012157 -0.015286 -0.048726 -0.002297 0.007056 -0.008474 -0.009766 -0.004854 -0.009035 -0.009767 -0.003706 -0.008814 -0.009766 -0.004204 0.000000 -0.009766 0.000000 -0.009378 -0.009765 -0.002723 0.000000 -0.019531 0.000000 -0.009202 -0.019526 -0.009757 -0.021282 -0.017984 -0.008973 -0.008877 -0.009886 -0.010580 -0.011410 -0.010241 -0.009120 0.005212 -0.003515 0.000000 0.018809 -0.013031 0.000000 0.693886 0.027157 0.028468 -2.832276 -0.581741 -0.154670 0.633344 0.094051 1.157927 -0.357362 0.049204 0.043701 -0.019534 0.009177 -0.003338 -0.039064 0.006080 -0.007642 0.019329 -0.024706 0.012888 0.000000 -0.019531 0.000000 0.000000 -0.019533 0.000000 0.000000 -0.019531 0.000000 -0.009345 -0.019531 0.002836 0.000000 -0.019530 0.000000 -0.009553 -0.019531 0.002029 -0.019761 -0.010092 -0.009521 -0.009542 -0.009472 -0.010049 -0.000730 -0.019531 -0.009739 -0.026379 -0.020657 -0.013808 -0.006067 0.003217 0.000000 -0.018247 0.013641 0.000000 0.000000 0.000000 0.000000 -0.376611 -0.195344 -0.399451 0.390618 -0.117604 -0.107399 -0.102531 -0.195338 0.250612 0.003729 0.019172 -0.009768 -0.018209 0.019804 -0.016200 -0.009596 -0.019532 -0.001810 -0.010018 0.000115 -0.010648 -0.019060 -0.009766 -0.004261 -0.019619 -0.000490 -0.002438 -0.009278 -0.009768 -0.003049 0.000577 -0.019307 -0.001996 -0.008976 0.000000 -0.003848 -0.019416 -0.019352 -0.012977 0.000000 0.000000 0.000000 -1.876756 -4.983050 -0.011229 6.932083 2.557341 0.462377 -5.214164 2.280912 -0.044854 0.005588 -0.028760 -0.009763 -0.017989 -0.049061 -0.004102 0.000000 -0.009765 0.000000 -0.009215 -0.019629 -0.008882 -0.010285 -0.018895 -0.001255 -0.029008 -0.019039 0.005128 -0.009277 -0.009766 0.003051 0.000000 -0.009767 0.000002 -0.008975 -0.019532 0.003849 -0.019355 -0.009882 -0.007624 0.002633 0.001891 0.000000 
-0.213975 43.059925 -0.662583 0.064668 0.069721 -0.012415 -0.044816 0.000087 0.000000 0.177302 -0.116010 0.020836 -0.010267 -0.011523 -0.019106 0.102960 -0.047810 -0.004358 0.000000 0.000000 0.000000 0.000000 0.000000 0.000000 -1.163345 -0.092757 0.048282 4.755976 -0.348215 -1.565168 -0.653114 -1.352566 4.224158 0.039122 0.312538 -0.110196 -0.019535 -0.027530 -0.010020 0.039055 -0.024315 -0.030572 -0.087584 0.012641 0.020247 -0.016948 -0.009767 -0.009706 -0.009035 -0.009767 -0.003706 -0.008814 -0.009766 -0.004204 0.000000 -0.009766 0.000000 -0.009378 -0.009765 -0.002723 0.000000 -0.019531 0.000000 -0.009202 -0.019526 -0.009757 -0.021282 -0.017984 -0.008973 -0.008877 -0.009886 -0.010580 -0.001827 -0.009406 -0.010803 0.011719 -0.007904 0.000000 0.042286 -0.029296 0.000000 1.105500 0.044358 0.041919 -4.409956 -0.889338 -0.299899 1.103742 0.163084 1.844888 -0.563555 0.079066 0.075311 -0.019531 0.027532 -0.010015 -0.068355 0.018240 -0.022929 0.058195 -0.039646 0.026086 0.008476 -0.019531 -0.004854 0.000000 -0.019533 0.000000 0.000000 -0.019531 0.000000 -0.018690 -0.029296 0.005676 0.000000 -0.029296 0.000000 -0.009553 -0.019531 0.002029 -0.029518 -0.010416 -0.009282 -0.009542 -0.009472 -0.010049 -0.000730 -0.019531 -0.009739 -0.035055 -0.031210 -0.015827 -0.013639 0.007233 0.000000 -0.041023 0.030668 0.000000 0.000000 0.000000 0.000000 -0.305333 -0.205295 -0.601368 0.666036 -0.163916 -0.101409 -0.479387 -0.322193 0.331705 0.011186 0.057516 -0.009779 -0.019116 0.068470 -0.012350 -0.009597 -0.029297 -0.001809 -0.001162 0.009226 -0.005236 -0.019815 -0.000636 -0.000878 -0.029852 0.008783 -0.002183 -0.009278 -0.009768 -0.003049 0.019344 -0.019306 0.003418 -0.017948 0.029297 -0.007699 -0.019416 -0.019352 -0.012977 0.000000 0.000000 0.000000 -1.719554 -5.129093 0.091016 6.983126 2.495244 0.446339 -5.495904 2.503955 -0.110340 0.007451 -0.038346 -0.009762 -0.027628 -0.097913 -0.003582 0.000000 -0.009765 0.000000 -0.009597 -0.029121 -0.011145 -0.010285 -0.018895 -0.001255 -0.039238 -0.028312 0.004868 0.000001 -0.009766 0.000002 0.009383 -0.009767 -0.002707 -0.008975 -0.019532 0.003849 -0.019355 -0.009882 -0.007624 0.005919 0.004251 0.000000 
